<svg width="32768" height="17187" viewBox="0 0 32768 17187" fill="none" xmlns="http://www.w3.org/2000/svg">
<g filter="url(#filter0_d_1_116)">
<path d="M2978.77 8738.23C2873.72 8851.52 2663.64 8855.17 2531.19 8741.88L2435.28 8661.48L2485.52 8741.88C2535.76 8822.28 2531.19 8825.94 2348.51 8825.94H2161.25L2174.95 9110.99L2193.22 9396.05L1919.2 9461.83C1549.26 9549.54 1215.86 9706.68 891.594 9947.89C535.358 10207.4 311.57 10488.8 147.153 10872.5C-122.307 11482.8 -8.12891 12221 434.882 12761.9C1211.29 13704.8 2718.44 14048.3 3965.27 13562.2C4755.38 13255.3 5303.43 12699.8 5481.55 12023.7C5696.21 11216 5330.84 10386.4 4531.59 9856.52C4266.7 9681.1 3741.48 9465.48 3494.85 9428.94L3335 9407.01L3353.27 9114.65L3366.97 8825.94H3152.32C2933.1 8825.94 2933.1 8825.94 3015.31 8752.85C3060.98 8712.65 3088.38 8672.45 3079.24 8665.14C3070.11 8657.83 3024.44 8690.72 2978.77 8738.23Z" fill="#FF7A00"/>
<path d="M10684.2 8771.74C10579.1 8885 10369 8888.66 10236.6 8775.4L10140.7 8695.02L10190.9 8775.4C10241.2 8855.77 10236.6 8859.43 10053.9 8859.43H9866.66L9880.36 9144.41L9898.63 9429.39L9624.6 9495.15C9254.67 9582.84 8921.27 9739.94 8597 9981.08C8240.77 10240.5 8016.98 10521.8 7852.56 10905.4C7583.1 11515.6 7697.28 12253.6 8140.29 12794.3C8916.7 13737 10423.8 14080.4 11670.7 13594.5C12460.8 13287.6 13008.8 12732.2 13187 12056.3C13401.6 11248.9 13036.2 10419.5 12237 9889.74C11972.1 9714.36 11446.9 9498.8 11200.3 9462.27L11040.4 9440.35L11058.7 9148.06L11072.4 8859.43H10857.7C10638.5 8859.43 10638.5 8859.43 10720.7 8786.36C10766.4 8746.17 10793.8 8705.98 10784.7 8698.67C10775.5 8691.36 10729.8 8724.25 10684.2 8771.74Z" fill="#1287F2"/>
<path d="M17288.1 8771.74C17183 8885 16973 8888.66 16840.5 8775.4L16744.6 8695.02L16794.9 8775.4C16845.1 8855.77 16840.5 8859.43 16657.9 8859.43H16470.6L16484.3 9144.41L16502.6 9429.39L16228.6 9495.15C15858.7 9582.84 15525.4 9739.94 15201.1 9981.08C14844.9 10240.5 14621.2 10521.8 14456.8 10905.4C14187.4 11515.6 14301.5 12253.6 14744.5 12794.3C15520.8 13737 17027.8 14080.4 18274.4 13594.5C19064.4 13287.6 19612.4 12732.2 19790.5 12056.3C20005.2 11248.9 19639.8 10419.5 18840.7 9889.74C18575.8 9714.36 18050.7 9498.8 17804.1 9462.27L17644.2 9440.35L17662.5 9148.06L17676.2 8859.43H17461.6C17242.4 8859.43 17242.4 8859.43 17324.6 8786.36C17370.2 8746.17 17397.6 8705.98 17388.5 8698.67C17379.4 8691.36 17333.7 8724.25 17288.1 8771.74Z" fill="black"/>
<path d="M17288.1 8771.74C17183 8885 16973 8888.66 16840.5 8775.4L16744.6 8695.02L16794.9 8775.4C16845.1 8855.77 16840.5 8859.43 16657.9 8859.43H16470.6L16484.3 9144.41L16502.6 9429.39L16228.6 9495.15C15858.7 9582.84 15525.4 9739.94 15201.1 9981.08C14844.9 10240.5 14621.2 10521.8 14456.8 10905.4C14187.4 11515.6 14301.5 12253.6 14744.5 12794.3C15520.8 13737 17027.8 14080.4 18274.4 13594.5C19064.4 13287.6 19612.4 12732.2 19790.5 12056.3C20005.2 11248.9 19639.8 10419.5 18840.7 9889.74C18575.8 9714.36 18050.7 9498.8 17804.1 9462.27L17644.2 9440.35L17662.5 9148.06L17676.2 8859.43H17461.6C17242.4 8859.43 17242.4 8859.43 17324.6 8786.36C17370.2 8746.17 17397.6 8705.98 17388.5 8698.67C17379.4 8691.36 17333.7 8724.25 17288.1 8771.74Z" fill="#9015F0"/>
<path d="M30454.3 12521C30359.6 12605.3 30170.2 12608 30050.8 12523.7L29964.4 12463.9L30009.7 12523.7C30055 12583.5 30050.8 12586.2 29886.1 12586.2H29717.3L29729.7 12798.3L29746.2 13010.4L29499.1 13059.4C29165.6 13124.6 28865 13241.6 28572.7 13421C28251.5 13614.1 28049.8 13823.5 27901.6 14109C27658.6 14563.1 27761.6 15112.4 28161 15514.8C28860.9 16216.4 30219.7 16472 31343.7 16110.3C32056 15881.9 32550.1 15468.6 32710.7 14965.5C32904.2 14364.6 32574.8 13747.3 31854.3 13353.1C31615.5 13222.5 31142 13062.1 30919.6 13034.9L30775.5 13018.6L30792 12801.1L30804.3 12586.2H30610.8C30413.2 12586.2 30413.2 12586.2 30487.3 12531.9C30528.5 12502 30553.2 12472 30544.9 12466.6C30536.7 12461.2 30495.5 12485.6 30454.3 12521Z" fill="#2D6138"/>
<path d="M21651.3 12527.3C21566.8 12621 21397.9 12624 21291.3 12530.3L21214.2 12463.9L21254.6 12530.3C21295 12596.8 21291.3 12599.8 21144.4 12599.8H20993.8L21004.8 12835.5L21019.5 13071.1L20799.1 13125.5C20501.6 13198 20233.4 13327.9 19972.6 13527.3C19686.1 13741.8 19506.1 13974.4 19373.9 14291.6C19157.1 14796.1 19249 15406.4 19605.3 15853.5C20229.7 16632.9 21441.9 16916.9 22444.8 16515.1C23080.2 16261.3 23521 15802.1 23664.3 15243.2C23837 14575.6 23543.1 13889.8 22900.3 13451.8C22687.2 13306.8 22264.8 13128.5 22066.4 13098.3L21937.8 13080.2L21952.5 12838.5L21963.6 12599.8H21790.9C21614.6 12599.8 21614.6 12599.8 21680.7 12539.4C21717.4 12506.2 21739.5 12472.9 21732.1 12466.9C21724.8 12460.9 21688.1 12488.1 21651.3 12527.3Z" fill="#FF0707"/>
<path d="M6847.16 12951.3C6744.23 13045.3 6538.38 13048.4 6408.6 12954.3L6314.62 12887.5L6363.85 12954.3C6413.07 13021.1 6408.6 13024.1 6229.59 13024.1H6046.11L6059.54 13260.8L6077.44 13497.6L5808.93 13552.2C5446.44 13625.1 5119.76 13755.6 4802.02 13955.9C4452.96 14171.4 4233.68 14405.1 4072.57 14723.8C3808.54 15230.7 3920.42 15843.8 4354.51 16293C5115.28 17076.1 6592.08 17361.4 7813.79 16957.7C8588 16702.8 9125.01 16241.4 9299.54 15679.9C9509.88 15009.1 9151.86 14320.1 8368.71 13880C8109.15 13734.3 7594.51 13555.3 7352.85 13524.9L7196.22 13506.7L7214.13 13263.9L7227.55 13024.1H7017.22C6802.41 13024.1 6802.41 13024.1 6882.96 12963.4C6927.72 12930 6954.57 12896.6 6945.62 12890.5C6936.67 12884.5 6891.91 12911.8 6847.16 12951.3Z" fill="#F0E710"/>
<path d="M25580.7 8756.63C25478.6 8847.59 25274.4 8850.52 25145.7 8759.57L25052.5 8695.02L25101.3 8759.57C25150.2 8824.12 25145.7 8827.05 24968.2 8827.05H24786.2L24799.5 9055.91L24817.3 9284.77L24551 9337.58C24191.4 9408 23867.4 9534.17 23552.3 9727.82C23206.1 9936.14 22988.6 10162.1 22828.8 10470.1C22567 10960.1 22677.9 11552.8 23108.5 11987.1C23863 12744.1 25327.7 13019.9 26539.4 12629.6C27307.2 12383.2 27839.9 11937.2 28013 11394.4C28221.6 10745.9 27866.5 10079.9 27089.8 9654.47C26832.3 9513.63 26321.9 9340.52 26082.2 9311.18L25926.9 9293.57L25944.6 9058.85L25958 8827.05H25749.3C25536.3 8827.05 25536.3 8827.05 25616.2 8768.37C25660.6 8736.1 25687.2 8703.82 25678.3 8697.95C25669.5 8692.08 25625.1 8718.49 25580.7 8756.63Z" fill="#2392E2"/>
<path d="M13687.3 13348.2C13597 13434.3 13416.5 13437.1 13302.7 13351L13220.3 13289.9L13263.4 13351C13306.6 13412.1 13302.7 13414.9 13145.7 13414.9H12984.8L12996.6 13631.5L13012.3 13848.1L12776.8 13898.1C12458.9 13964.7 12172.4 14084.1 11893.8 14267.4C11587.7 14464.5 11395.4 14678.3 11254.1 14969.9C11022.6 15433.6 11120.7 15994.5 11501.4 16405.5C12168.5 17121.9 13463.6 17383 14534.9 17013.6C15213.9 16780.4 15684.8 16358.3 15837.9 15844.6C16022.3 15230.9 15708.4 14600.6 15021.6 14197.9C14794 14064.7 14342.7 13900.8 14130.7 13873.1L13993.4 13856.4L14009.1 13634.3L14020.8 13414.9H13836.4C13648 13414.9 13648 13414.9 13718.7 13359.3C13757.9 13328.8 13781.5 13298.3 13773.6 13292.7C13765.8 13287.2 13726.5 13312.1 13687.3 13348.2Z" fill="#274A48"/>
<path d="M2765.05 941.704C3025.09 941.695 3235.89 730.88 3235.88 470.836C3235.87 210.791 3025.05 -0.0087965 2765.01 0.000219298C2504.96 0.00923509 2294.17 210.824 2294.18 470.868C2294.19 730.913 2505 941.713 2765.05 941.704ZM2853.66 8694.71L2853.31 470.849L2676.74 470.855L2677.09 8694.72L2853.66 8694.71Z" fill="black"/>
<path d="M10428.9 941.704C10688.9 941.695 10899.7 730.88 10899.7 470.836C10899.7 210.791 10688.9 -0.0087965 10428.8 0.000219298C10168.8 0.00923509 9957.99 210.824 9958 470.868C9958.01 730.913 10168.8 941.713 10428.9 941.704ZM10517.5 8694.71L10517.1 470.849L10340.6 470.855L10340.9 8694.72L10517.5 8694.71Z" fill="black"/>
<path d="M17081.9 941.704C17341.9 941.695 17552.7 730.88 17552.7 470.836C17552.7 210.791 17341.9 -0.0087965 17081.9 0.000219298C16821.8 0.00923509 16611 210.824 16611 470.868C16611 730.913 16821.9 941.713 17081.9 941.704ZM17170.5 8694.71L17170.2 470.849L16993.6 470.855L16993.9 8694.72L17170.5 8694.71Z" fill="black"/>
<path d="M25379.9 1183.58C25640 1183.57 25850.8 972.759 25850.7 712.714C25850.7 452.67 25639.9 241.87 25379.9 241.879C25119.8 241.888 24909 452.703 24909 712.747C24909.1 972.791 25119.9 1183.59 25379.9 1183.58ZM25468.5 8936.59L25468.2 712.728L25291.6 712.734L25292 8936.6L25468.5 8936.59Z" fill="black"/>
<path d="M6644.65 5053.64C6904.69 5053.63 7115.49 4842.81 7115.48 4582.77C7115.47 4322.72 6904.65 4111.92 6644.61 4111.93C6384.56 4111.94 6173.76 4322.76 6173.78 4582.8C6173.79 4842.85 6384.6 5053.65 6644.65 5053.64ZM6733.26 12806.6L6732.91 4582.78L6556.34 4582.79L6556.69 12806.7L6733.26 12806.6Z" fill="black"/>
<path d="M13510 5537.39C13770 5537.38 13980.8 5326.57 13980.8 5066.52C13980.8 4806.48 13770 4595.68 13510 4595.69C13249.9 4595.7 13039.1 4806.51 13039.1 5066.56C13039.1 5326.6 13250 5537.4 13510 5537.39ZM13598.6 13290.4L13598.3 5066.54L13421.7 5066.54L13422 13290.4L13598.6 13290.4Z" fill="black"/>
<path d="M21484.3 4710.97C21744.3 4710.97 21955.1 4500.15 21955.1 4240.11C21955.1 3980.06 21744.3 3769.26 21484.3 3769.27C21224.2 3769.28 21013.4 3980.1 21013.4 4240.14C21013.4 4500.18 21224.3 4710.98 21484.3 4710.97ZM21572.9 12464L21572.6 4240.12L21396 4240.13L21396.3 12464L21572.9 12464Z" fill="black"/>
<path d="M30268.9 4710.97C30529 4710.97 30739.8 4500.15 30739.7 4240.11C30739.7 3980.06 30528.9 3769.26 30268.9 3769.27C30008.8 3769.28 29798 3980.1 29798 4240.14C29798.1 4500.18 30008.9 4710.98 30268.9 4710.97ZM30357.5 12464L30357.2 4240.12L30180.6 4240.13L30181 12464L30357.5 12464Z" fill="black"/>
<line y1="-0.5" x2="8483.52" y2="-0.5" transform="matrix(0.483158 0.484697 -0.530214 0.43272 2765.03 470.852)" stroke="black"/>
<line y1="-61.5" x2="8483.52" y2="-61.5" transform="matrix(0.483158 0.484697 -0.530214 0.43272 2765.03 470.852)" stroke="black" stroke-width="123"/>
<line y1="-61.5" x2="7539.53" y2="-61.5" transform="matrix(0.367298 0.577464 -0.607005 0.316098 10428.9 470.852)" stroke="black" stroke-width="123"/>
<line y1="-61.5" x2="8786.97" y2="-61.5" transform="matrix(0.533259 0.428961 -0.479644 0.488175 16799.2 470.852)" stroke="black" stroke-width="123"/>
<line y1="-61.5" x2="8786.97" y2="-61.5" transform="matrix(0.533259 0.428961 -0.479644 0.488175 25728.7 642.182)" stroke="black" stroke-width="123"/>
<line y1="-61.5" x2="33046.4" y2="-61.5" transform="matrix(0.684358 0.00518455 -0.0063324 0.684348 2765.03 470.852)" stroke="black" stroke-width="123"/>
<path d="M2772.41 9622.35L2869.98 9947.7H3185.72L2930.28 10148.8L3027.85 10474.1L2772.41 10273.1L2516.97 10474.1L2614.54 10148.8L2359.1 9947.7H2674.84L2772.41 9622.35Z" fill="#D9D9D9"/>
<path d="M2772.41 9622.35L2869.98 9947.7H3185.72L2930.28 10148.8L3027.85 10474.1L2772.41 10273.1L2516.97 10474.1L2614.54 10148.8L2359.1 9947.7H2674.84L2772.41 9622.35Z" fill="#D9D9D9"/>
<path d="M3930.72 10783.7L4028.22 11109.1H4343.71L4088.47 11310.2L4185.96 11635.5L3930.72 11434.4L3675.48 11635.5L3772.98 11310.2L3517.74 11109.1H3833.23L3930.72 10783.7Z" fill="#D9D9D9"/>
<path d="M9311.64 11002.1L9409.06 11327.9H9724.3L9469.26 11529.2L9566.68 11855.1L9311.64 11653.7L9056.6 11855.1L9154.02 11529.2L8898.98 11327.9H9214.23L9311.64 11002.1Z" fill="#D9D9D9"/>
<path d="M9311.64 11002.1L9409.06 11327.9H9724.3L9469.26 11529.2L9566.68 11855.1L9311.64 11653.7L9056.6 11855.1L9154.02 11529.2L8898.98 11327.9H9214.23L9311.64 11002.1Z" fill="#D9D9D9"/>
<path d="M17082.1 11002.1L17179.5 11327.9H17494.7L17239.7 11529.2L17337.1 11855.1L17082.1 11653.7L16827 11855.1L16924.4 11529.2L16669.4 11327.9H16984.6L17082.1 11002.1Z" fill="#D9D9D9"/>
<path d="M15054.6 11392.8L15152.1 11718.4L15467.6 11718.4L15212.3 11919.6L15309.8 12245.2L15054.6 12044L14799.4 12245.2L14896.9 11919.6L14641.6 11718.4L14957.1 11718.4L15054.6 11392.8Z" fill="#D9D9D9"/>
<path d="M25380.5 10060.4L25478 10385.7H25793.5L25538.2 10586.8L25635.7 10912.1L25380.5 10711.1L25125.2 10912.1L25222.7 10586.8L24967.5 10385.7H25283L25380.5 10060.4Z" fill="#D9D9D9"/>
<path d="M13246.8 14293.2L13344.2 14618.8L13659.5 14618.8L13404.4 14820L13501.9 15145.6L13246.8 14944.4L12991.8 15145.6L13089.2 14820L12834.2 14618.8L13149.4 14618.8L13246.8 14293.2Z" fill="#D9D9D9"/>
<path d="M14308.3 15013.9L14405.7 15339.2H14720.9L14465.9 15540.3L14563.3 15865.7L14308.3 15664.6L14053.2 15865.7L14150.7 15540.3L13895.6 15339.2H14210.9L14308.3 15013.9Z" fill="#D9D9D9"/>
<path d="M21484 14293.2L21581.4 14618.8L21896.6 14618.8L21641.6 14820L21739 15145.6L21484 14944.4L21228.9 15145.6L21326.4 14820L21071.3 14618.8L21386.6 14618.8L21484 14293.2Z" fill="#D9D9D9"/>
<path d="M30268.7 13897.7L30366.1 14223.2L30681.3 14223.2L30426.3 14424.5L30523.7 14750.1L30268.7 14548.8L30013.6 14750.1L30111 14424.5L29856 14223.2L30171.2 14223.2L30268.7 13897.7Z" fill="#D9D9D9"/>
<path d="M26987.4 10750.2L27084.9 11076H27400.4L27145.2 11277.4L27242.6 11603.2L26987.4 11401.9L26732.2 11603.2L26829.7 11277.4L26574.4 11076H26889.9L26987.4 10750.2Z" fill="#D9D9D9"/>
<path d="M5534.56 14293.2L5631.98 14618.8L5947.22 14618.8L5692.18 14820L5789.6 15145.6L5534.56 14944.4L5279.52 15145.6L5376.94 14820L5121.9 14618.8L5437.15 14618.8L5534.56 14293.2Z" fill="#D9D9D9"/>
<path d="M6863.62 15235.6L6961.19 15561.2L7276.93 15561.2L7021.49 15762.4L7119.06 16088L6863.62 15886.8L6608.18 16088L6705.75 15762.4L6450.31 15561.2L6766.05 15561.2L6863.62 15235.6Z" fill="#D9D9D9"/>
<path d="M7707.8 14293.2L7805.3 14618.8L8120.79 14618.8L7865.55 14820L7963.04 15145.6L7707.8 14944.4L7452.56 15145.6L7550.06 14820L7294.82 14618.8L7610.31 14618.8L7707.8 14293.2Z" fill="#D9D9D9"/>
<path d="M18689.7 10531.2L18787.1 10856.8L19102.3 10856.8L18847.3 11058L18944.7 11383.6L18689.7 11182.4L18434.6 11383.6L18532 11058L18277 10856.8L18592.3 10856.8L18689.7 10531.2Z" fill="#D9D9D9"/>
<path d="M17516.6 12335.2L17614.1 12660.8L17929.3 12660.8L17674.3 12862L17771.7 13187.6L17516.6 12986.4L17261.6 13187.6L17359 12862L17104 12660.8L17419.2 12660.8L17516.6 12335.2Z" fill="#D9D9D9"/>
<path d="M17081.4 9377.34L17178.8 9703.17H17494L17239 9904.54L17336.4 10230.4L17081.4 10029L16826.3 10230.4L16923.8 9904.54L16668.7 9703.17H16984L17081.4 9377.34Z" fill="#D9D9D9"/>
<path d="M10613.3 9622.35L10710.7 9947.7H11026L10770.9 10148.8L10868.4 10474.1L10613.3 10273.1L10358.3 10474.1L10455.7 10148.8L10200.7 9947.7H10515.9L10613.3 9622.35Z" fill="#D9D9D9"/>
<path d="M10613.3 12335.2L10710.7 12660.8L11026 12660.8L10770.9 12862L10868.4 13187.6L10613.3 12986.4L10358.3 13187.6L10455.7 12862L10200.7 12660.8L10515.9 12660.8L10613.3 12335.2Z" fill="#D9D9D9"/>
<path d="M11966.3 11002.1L12063.8 11327.9H12379L12124 11529.2L12221.4 11855.1L11966.3 11653.7L11711.3 11855.1L11808.7 11529.2L11553.7 11327.9H11868.9L11966.3 11002.1Z" fill="#D9D9D9"/>
<path d="M1165.15 10616.7L1262.65 10942.3L1578.14 10942.3L1322.9 11143.6L1420.39 11469.1L1165.15 11267.9L909.914 11469.1L1007.41 11143.6L752.168 10942.3L1067.66 10942.3L1165.15 10616.7Z" fill="#D9D9D9"/>
<path d="M2772.41 10783.7L2869.98 11109.1H3185.72L2930.28 11310.2L3027.85 11635.5L2772.41 11434.4L2516.97 11635.5L2614.54 11310.2L2359.1 11109.1H2674.84L2772.41 10783.7Z" fill="#D9D9D9"/>
<path d="M2331.67 11945.1L2429.09 12270.7L2744.33 12270.7L2489.3 12471.9L2586.71 12797.5L2331.67 12596.3L2076.64 12797.5L2174.05 12471.9L1919.02 12270.7L2234.26 12270.7L2331.67 11945.1Z" fill="#D9D9D9"/>
</g>
<defs>
<filter id="filter0_d_1_116" x="0" y="0" width="32768" height="17186.1" filterUnits="userSpaceOnUse" color-interpolation-filters="sRGB">
<feFlood flood-opacity="0" result="BackgroundImageFix"/>
<feColorMatrix in="SourceAlpha" type="matrix" values="0 0 0 0 0 0 0 0 0 0 0 0 0 0 0 0 0 0 127 0" result="hardAlpha"/>
<feOffset dy="4"/>
<feGaussianBlur stdDeviation="2"/>
<feComposite in2="hardAlpha" operator="out"/>
<feColorMatrix type="matrix" values="0 0 0 0 0 0 0 0 0 0 0 0 0 0 0 0 0 0 0.25 0"/>
<feBlend mode="normal" in2="BackgroundImageFix" result="effect1_dropShadow_1_116"/>
<feBlend mode="normal" in="SourceGraphic" in2="effect1_dropShadow_1_116" result="shape"/>
</filter>
</defs>
</svg>
